<svg xmlns="http://www.w3.org/2000/svg" viewBox="0 0 192 132">
  <path fill="#060606" d="M160.098 95.941c4.988-12.973 6.29-25.915 2.77-39.01-1.138-4.232-3.258-8.418-5.792-12.017-7.836-11.129-21.856-11.163-28.958.483-4.968 8.146-8.353 17.3-12.045 26.17-4.526 10.876-8.023 22.216-13.055 32.839-8.924 18.837-29.996 27.887-49.441 21.459-5.429-1.795-10.223-5.509-14.926-9.166 8.944 2.783 17.75 3.372 26.705 1.526 13.138-2.709 22.812-10.511 28.439-22.248 5.506-11.486 9.371-23.755 14.066-35.637 2.5-6.328 5.356-12.515 7.835-18.85 8.678-22.175 39.468-19.03 50.021-5.354 8.147 10.559 10.543 22.747 11.253 35.519.83 14.935-1.802 29.516-5.131 43.972-.287 1.246-2.233 2.957-3.466 3.006-11.307.453-22.626.638-33.943.737-1.22.011-2.449-.997-3.535-2.356 14.491-.761 23.71-7.992 29.199-21.052z"/>
  <path fill="#060606" d="M16.04 57.259c2.021-13.117 3.975-25.771 6.105-38.395.155-.916 1.564-2.281 2.436-2.317 13.969-.58 27.944-1.035 41.922-1.322 1.326-.027 2.679 1.262 3.818 2.721-12.344 1.867-22.786 6.376-30.846 15.584C28.81 45.712 24.492 59.792 28.143 75.684c3.508 15.271 17.329 23.924 31.491 20.476 6.266-1.525 10.948-5.26 13.539-10.895 4.294-9.338 8.037-18.936 11.838-28.493 3.436-8.64 6.088-17.634 10.057-26.012 9.049-19.1 28.737-26.569 47.127-18.436 1.408.623 2.682 1.548 3.7 3.323-2.931-.135-5.894-.61-8.789-.347-14.802 1.346-25.82 8.69-31.999 22.167-4.002 8.728-6.683 18.055-10.161 27.034-3.176 8.201-6.226 16.488-10.044 24.393-6.627 13.72-17.459 21.195-33.184 19.901-15.481-1.274-29.685-12.41-33.416-27.356-1.901-7.618-1.594-15.788-2.26-24.179z"/>
</svg>
