<svg version="1.1" id="Layer_1" xmlns="http://www.w3.org/2000/svg" xmlns:xlink="http://www.w3.org/1999/xlink" x="0px" y="0px"
	 width="100%" viewBox="0 0 192 132" enable-background="new 0 0 192 132" xml:space="preserve">
<path fill="#060606" opacity="1.000000" stroke="none" 
	d="
M160.098389,95.941391 
	C165.086594,82.967896 166.389145,70.025696 162.869003,56.931313 
	C161.731232,52.698959 159.611343,48.513138 157.077087,44.914162 
	C149.240799,33.785522 135.221451,33.752167 128.119385,45.398338 
	C123.151695,53.544514 119.765938,62.698345 116.074768,71.569038 
	C111.548851,82.445793 108.051277,93.785599 103.018730,104.408661 
	C94.094925,123.245682 73.023033,132.295837 53.577953,125.868034 
	C48.149117,124.073471 43.354771,120.359505 38.652020,116.701996 
	C47.596264,119.484810 56.402359,120.073929 65.357376,118.227524 
	C78.495674,115.518585 88.169708,107.716911 93.796440,95.979668 
	C99.302910,84.493294 103.168152,72.224823 107.862999,60.342793 
	C110.363297,54.014843 113.219757,47.827152 115.699188,41.491520 
	C124.377098,19.317083 155.166870,22.461433 165.719772,36.137428 
	C173.867111,46.695961 176.263931,58.884346 176.973648,71.656128 
	C177.803619,86.591278 175.171341,101.171722 171.842606,115.628174 
	C171.555695,116.874184 169.609879,118.584938 168.376770,118.634315 
	C157.070114,119.087105 145.751114,119.272224 134.434265,119.371338 
	C133.214096,119.382034 131.984818,118.352554 130.898880,116.993790 
	C145.390121,116.231918 154.609329,109.001526 160.098389,95.941391 
z"/>
<path fill="#060606" opacity="1.000000" stroke="none" 
	d="
M16.039736,57.259342 
	C18.061121,44.142124 20.014763,31.488132 22.144835,18.863909 
	C22.299446,17.947578 23.708435,16.582541 24.580721,16.546329 
	C38.549732,15.966417 52.525131,15.510922 66.503113,15.224010 
	C67.829369,15.196789 69.182663,16.486212 70.321587,17.944801 
	C57.977272,19.812054 47.535480,24.321095 39.474907,33.529354 
	C28.810539,45.712143 24.491590,59.791771 28.142567,75.684494 
	C31.650768,90.955727 45.471348,99.609161 59.633575,96.161575 
	C65.899368,94.636253 70.580948,90.900841 73.172119,85.265976 
	C77.466278,75.927757 81.209518,66.330437 85.010605,56.772964 
	C88.446877,48.132797 91.098526,39.138645 95.067497,30.760750 
	C104.116165,11.660370 123.804062,4.190917 142.193771,12.324152 
	C143.601944,12.946941 144.876312,13.872248 145.894516,15.647398 
	C142.962936,15.512714 140.000351,15.037296 137.104965,15.300638 
	C122.302803,16.646933 111.285156,23.990728 105.105690,37.466896 
	C101.103317,46.195244 98.422279,55.521606 94.944954,64.500923 
	C91.769135,72.701668 88.718758,80.989311 84.900352,88.894386 
	C78.273384,102.613953 67.441582,110.089394 51.716450,108.794815 
	C36.235416,107.520325 22.031538,96.384262 18.300447,81.438309 
	C16.398649,73.820107 16.706312,65.650322 16.039736,57.259342 
z"/>
</svg>